<svg id="Layer_1" data-name="Layer 1" xmlns="http://www.w3.org/2000/svg" viewBox="0 0 784.63 107.31"><defs><style>.cls-1{fill:#ed1944;}.cls-2{fill:#a30c33;}.cls-3{fill:#6f1931;}.cls-4{fill:#221000;}.cls-5{fill:#231f20;}</style></defs>
<path class="cls-1" d="M31.92,27.5V133.12H137.54V27.5H31.92Zm71.34,73.91H99.5l-27-34.23v34.23H68V59.66h4.41l26.3,33.46V59.66h4.59v41.75Z" transform="translate(-31.92 -27.5)"/><path class="cls-2" d="M139.88,27.5V133.12H245.5V27.5H139.88Zm69.85,73.91-4.89-11H182.11l-4.95,11h-4.83l19-42h4.41l19,42h-5.07Z" transform="translate(-31.92 -27.5)"/><polygon class="cls-2" points="152.04 58.64 171.07 58.64 161.59 37.35 152.04 58.64"/><path class="cls-3" d="M247.84,27.5V133.12H353.46V27.5H247.84ZM317.42,64h-14v37.4h-4.77V64h-14V59.66h32.8V64Z" transform="translate(-31.92 -27.5)"/><path class="cls-4" d="M407.49,63.3c-9.55,0-16.34,7.63-16.34,17.12v0.12c0,9.48,6.92,17.24,16.46,17.24s16.34-7.63,16.34-17.12V80.53C423.95,71,417,63.3,407.49,63.3Z" transform="translate(-31.92 -27.5)"/><path class="cls-4" d="M355.79,27.5V133.12H461.42V27.5H355.79Zm73,53c0,11.51-8.65,21.59-21.35,21.59s-21.23-10-21.23-21.47V80.53c0-11.51,8.65-21.59,21.35-21.59s21.23,10,21.23,21.47v0.12Z" transform="translate(-31.92 -27.5)"/><path class="cls-5" d="M484,126.57a8.06,8.06,0,0,1-.64,3.18,8.25,8.25,0,0,1-4.37,4.41,8.32,8.32,0,0,1-6.46,0,8.13,8.13,0,0,1-4.34-4.37,8.27,8.27,0,0,1,0-6.36A8.25,8.25,0,0,1,472.6,119a8.32,8.32,0,0,1,6.46,0,8.12,8.12,0,0,1,4.34,4.37A8.06,8.06,0,0,1,484,126.57Zm-1,0A7.35,7.35,0,0,0,481,121.4a7,7,0,0,0-2.29-1.56,7.25,7.25,0,0,0-2.87-.57,7.18,7.18,0,0,0-5.2,2.16,7.35,7.35,0,0,0-2.09,5.18,7.44,7.44,0,0,0,.54,2.85,7.05,7.05,0,0,0,3.83,3.87,7.3,7.3,0,0,0,8.08-1.59A7.35,7.35,0,0,0,483.08,126.57Zm-3.34-1.7a2.73,2.73,0,0,1-.52,1.75,3.1,3.1,0,0,1-1.36,1l2.13,3.13h-2.25l-1.86-2.82h-1.52v2.82h-1.93V122h3.88a3.83,3.83,0,0,1,2.5.76A2.59,2.59,0,0,1,479.74,124.86Zm-2,.11a1.16,1.16,0,0,0-.41-1,1.81,1.81,0,0,0-1.14-.32h-1.89v2.57h1.93a1.59,1.59,0,0,0,1.11-.35A1.18,1.18,0,0,0,477.79,125Z" transform="translate(-31.92 -27.5)"/><path class="cls-5" d="M514.16,48.63V84.18h-9.81V48.63H490.77v-9h37v9H514.16Z" transform="translate(-31.92 -27.5)"/><path class="cls-5" d="M562.45,84.18L552.9,69.91h-7.71V84.18h-9.81V39.58h20.39q8,0,12.39,3.89t4.43,10.83v0.13a14,14,0,0,1-2.64,8.82,15.33,15.33,0,0,1-6.91,5l10.89,15.93H562.45Zm0.19-29.37a5.69,5.69,0,0,0-2-4.78,9,9,0,0,0-5.67-1.59h-9.75V61.24h9.94a8.15,8.15,0,0,0,5.58-1.72,5.83,5.83,0,0,0,1.94-4.59V54.81Z" transform="translate(-31.92 -27.5)"/><path class="cls-5" d="M614.76,84.18l-4.08-10H591.83l-4.08,10h-10l19.11-44.92h9L625,84.18H614.76ZM601.26,51l-5.93,14.46h11.85Z" transform="translate(-31.92 -27.5)"/><path class="cls-5" d="M632.48,84.18V39.58h9.81v44.6h-9.81Z" transform="translate(-31.92 -27.5)"/><path class="cls-5" d="M684.85,84.18l-21.6-28.35V84.18h-9.68V39.58h9L683.51,67V39.58h9.68v44.6h-8.35Z" transform="translate(-31.92 -27.5)"/><path class="cls-5" d="M704.47,84.18V39.58h9.81v44.6h-9.81Z" transform="translate(-31.92 -27.5)"/><path class="cls-5" d="M756.85,84.18l-21.6-28.35V84.18h-9.68V39.58h9L755.51,67V39.58h9.68v44.6h-8.35Z" transform="translate(-31.92 -27.5)"/><path class="cls-5" d="M808.36,82.88a27,27,0,0,1-10.86,2.07A25.44,25.44,0,0,1,788,83.23a22,22,0,0,1-7.39-4.78,21.58,21.58,0,0,1-4.81-7.26A24,24,0,0,1,774,62V61.88a22.8,22.8,0,0,1,14-21.25,23.68,23.68,0,0,1,9.37-1.82,32.94,32.94,0,0,1,5.45.41,26,26,0,0,1,4.56,1.18,21.24,21.24,0,0,1,4,1.91A29.59,29.59,0,0,1,815,44.93l-6.18,7.45a25.07,25.07,0,0,0-2.55-1.91,16.71,16.71,0,0,0-2.64-1.4,15.62,15.62,0,0,0-3-.89,18,18,0,0,0-3.5-.32,11.43,11.43,0,0,0-5,1.11A13.51,13.51,0,0,0,788,52a13.7,13.7,0,0,0-2.74,4.4,14.59,14.59,0,0,0-1,5.38v0.13a15.63,15.63,0,0,0,1,5.64A13.39,13.39,0,0,0,788.1,72a12.76,12.76,0,0,0,4.27,3A13.68,13.68,0,0,0,797.82,76a15.52,15.52,0,0,0,9.24-2.68V67h-9.87V58.5h19.37V77.87A32.66,32.66,0,0,1,808.36,82.88Z" transform="translate(-31.92 -27.5)"/><path class="cls-5" d="M501.57,102.63a4.93,4.93,0,0,0,.33,1.85,3.65,3.65,0,0,0,1.19,1.5,8.66,8.66,0,0,0,2.37,1.23,28.56,28.56,0,0,0,3.89,1,16.88,16.88,0,0,1,7.06,3,6.41,6.41,0,0,1,2.27,5.21,7.57,7.57,0,0,1-2.74,5.95,9,9,0,0,1-3.08,1.64,12.92,12.92,0,0,1-3.94.57,17,17,0,0,1-6.29-1.13,18,18,0,0,1-5.43-3.46l2-2.38a16.91,16.91,0,0,0,4.55,3.05,13.06,13.06,0,0,0,5.29,1,7.39,7.39,0,0,0,4.65-1.35,4.3,4.3,0,0,0,1.74-3.57,4.77,4.77,0,0,0-.33-1.82,3.67,3.67,0,0,0-1.15-1.46,8.19,8.19,0,0,0-2.28-1.19,29.07,29.07,0,0,0-3.71-1,29.62,29.62,0,0,1-4.28-1.23,10.64,10.64,0,0,1-3-1.68,6.18,6.18,0,0,1-1.76-2.3,7.73,7.73,0,0,1-.57-3.12,7.13,7.13,0,0,1,.7-3.16,7.33,7.33,0,0,1,2-2.48,9.58,9.58,0,0,1,3-1.64,11.5,11.5,0,0,1,3.77-.59,15.73,15.73,0,0,1,5.51.88,16.81,16.81,0,0,1,4.57,2.64l-1.89,2.5a14,14,0,0,0-4-2.38,12.31,12.31,0,0,0-4.24-.74,8.08,8.08,0,0,0-2.52.37,6.4,6.4,0,0,0-1.93,1,4.24,4.24,0,0,0-1.23,1.48A4.07,4.07,0,0,0,501.57,102.63Z" transform="translate(-31.92 -27.5)"/><path class="cls-5" d="M579.14,98.45H561.64v9.72H577.3v3H561.64v10h17.71v3h-21V95.46h20.75v3Z" transform="translate(-31.92 -27.5)"/><path class="cls-5" d="M638.69,124.16L630.38,113h-8.18v11.15H619V95.46h12.32a13.87,13.87,0,0,1,4.28.62,9.65,9.65,0,0,1,3.25,1.74,7.77,7.77,0,0,1,2.09,2.71,8.19,8.19,0,0,1,.74,3.51,8.52,8.52,0,0,1-.57,3.22,7.34,7.34,0,0,1-1.62,2.46,9.09,9.09,0,0,1-2.48,1.74,11.5,11.5,0,0,1-3.11,1l8.82,11.73h-4Zm-0.3-20a5,5,0,0,0-1.93-4.2,8.65,8.65,0,0,0-5.41-1.5h-8.86v11.64H631a10.14,10.14,0,0,0,3-.41,7.22,7.22,0,0,0,2.34-1.17,5.34,5.34,0,0,0,1.54-1.87A5.51,5.51,0,0,0,638.39,104.15Z" transform="translate(-31.92 -27.5)"/><path class="cls-5" d="M685.21,95.46v28.7H682V95.46h3.24Z" transform="translate(-31.92 -27.5)"/><path class="cls-5" d="M747.45,98.45H729.94v9.72H745.6v3H729.94v10h17.71v3h-21V95.46h20.75v3Z" transform="translate(-31.92 -27.5)"/><path class="cls-5" d="M789.76,102.63a4.93,4.93,0,0,0,.33,1.85,3.65,3.65,0,0,0,1.19,1.5,8.66,8.66,0,0,0,2.37,1.23,28.56,28.56,0,0,0,3.89,1,16.88,16.88,0,0,1,7.06,3,6.41,6.41,0,0,1,2.27,5.21,7.57,7.57,0,0,1-2.74,5.95A9,9,0,0,1,801,124a12.92,12.92,0,0,1-3.94.57,17,17,0,0,1-6.29-1.13,18,18,0,0,1-5.43-3.46l2-2.38a16.91,16.91,0,0,0,4.55,3.05,13.06,13.06,0,0,0,5.29,1,7.39,7.39,0,0,0,4.65-1.35,4.3,4.3,0,0,0,1.74-3.57,4.77,4.77,0,0,0-.33-1.82,3.67,3.67,0,0,0-1.15-1.46,8.19,8.19,0,0,0-2.28-1.19,29.07,29.07,0,0,0-3.71-1,29.62,29.62,0,0,1-4.28-1.23,10.64,10.64,0,0,1-3-1.68,6.18,6.18,0,0,1-1.76-2.3,7.73,7.73,0,0,1-.57-3.12,7.13,7.13,0,0,1,.7-3.16,7.33,7.33,0,0,1,2-2.48,9.58,9.58,0,0,1,3-1.64A11.5,11.5,0,0,1,796,95a15.73,15.73,0,0,1,5.51.88A16.81,16.81,0,0,1,806,98.57l-1.89,2.5a14,14,0,0,0-4-2.38,12.31,12.31,0,0,0-4.24-.74,8.08,8.08,0,0,0-2.52.37,6.4,6.4,0,0,0-1.93,1,4.24,4.24,0,0,0-1.23,1.48A4.07,4.07,0,0,0,789.76,102.63Z" transform="translate(-31.92 -27.5)"/></svg>